<?xml version="1.0" encoding="iso-8859-1"?>
<!-- Generator: Adobe Illustrator 19.0.0, SVG Export Plug-In . SVG Version: 6.00 Build 0)  -->
<svg version="1.1" id="Capa_1" xmlns="http://www.w3.org/2000/svg" xmlns:xlink="http://www.w3.org/1999/xlink" x="0px" y="0px"
	 viewBox="0 0 512 512" style="enable-background:new 0 0 512 512;" xml:space="preserve">
<g>
	<g>
		<path d="M0,100.571v182.857h100.571h210.286v-82.286V128v-27.429H0z M36.571,146.286h128c5.047,0,9.143,4.096,9.143,9.143
			c0,5.047-4.096,9.143-9.143,9.143h-128c-5.047,0-9.143-4.096-9.143-9.143C27.429,150.382,31.525,146.286,36.571,146.286z
			 M36.571,182.857h36.571c5.047,0,9.143,4.096,9.143,9.143s-4.096,9.143-9.143,9.143H36.571c-5.047,0-9.143-4.096-9.143-9.143
			S31.525,182.857,36.571,182.857z M164.571,237.714h-128c-5.047,0-9.143-4.096-9.143-9.143c0-5.047,4.096-9.143,9.143-9.143h128
			c5.047,0,9.143,4.096,9.143,9.143C173.714,233.618,169.618,237.714,164.571,237.714z M246.857,237.714h-36.571
			c-5.047,0-9.143-4.096-9.143-9.143c0-5.047,4.096-9.143,9.143-9.143h36.571c5.047,0,9.143,4.096,9.143,9.143
			C256,233.618,251.904,237.714,246.857,237.714z M274.286,201.143H118.857c-5.047,0-9.143-4.096-9.143-9.143
			s4.096-9.143,9.143-9.143h155.429c5.047,0,9.143,4.096,9.143,9.143S279.333,201.143,274.286,201.143z M274.286,164.571h-64
			c-5.047,0-9.143-4.096-9.143-9.143c0-5.047,4.096-9.143,9.143-9.143h64c5.047,0,9.143,4.096,9.143,9.143
			C283.429,160.475,279.333,164.571,274.286,164.571z"/>
	</g>
</g>
<g>
	<g>
		<path d="M0,27.429v54.857h310.857V27.429H0z M182.857,64h-9.143c-5.047,0-9.143-4.096-9.143-9.143
			c0-5.047,4.096-9.143,9.143-9.143h9.143c5.047,0,9.143,4.096,9.143,9.143C192,59.904,187.904,64,182.857,64z M228.571,64h-9.143
			c-5.047,0-9.143-4.096-9.143-9.143c0-5.047,4.096-9.143,9.143-9.143h9.143c5.047,0,9.143,4.096,9.143,9.143
			C237.714,59.904,233.618,64,228.571,64z M274.286,64h-9.143c-5.047,0-9.143-4.096-9.143-9.143c0-5.047,4.096-9.143,9.143-9.143
			h9.143c5.047,0,9.143,4.096,9.143,9.143C283.429,59.904,279.333,64,274.286,64z"/>
	</g>
</g>
<g>
	<g>
		<path d="M438.857,228.571v54.857H512v-54.857H438.857z M484.571,265.143h-18.286c-5.047,0-9.143-4.096-9.143-9.143
			s4.096-9.143,9.143-9.143h18.286c5.047,0,9.143,4.096,9.143,9.143S489.618,265.143,484.571,265.143z"/>
	</g>
</g>
<g>
	<g>
		<path d="M438.857,301.714v100.571c0,5.047-4.096,9.143-9.143,9.143H201.143v73.143H512V301.714H438.857z M374.857,457.143h-128
			c-5.047,0-9.143-4.096-9.143-9.143c0-5.047,4.096-9.143,9.143-9.143h128c5.047,0,9.143,4.096,9.143,9.143
			C384,453.047,379.904,457.143,374.857,457.143z M466.286,457.143h-45.714c-5.047,0-9.143-4.096-9.143-9.143
			c0-5.047,4.096-9.143,9.143-9.143h45.714c5.047,0,9.143,4.096,9.143,9.143C475.429,453.047,471.333,457.143,466.286,457.143z"/>
	</g>
</g>
<g>
	<g>
		<path d="M329.143,210.286v73.143H384c5.047,0,9.143,4.096,9.143,9.143c0,5.047-4.096,9.143-9.143,9.143h-64H109.714v91.429H192
			h228.571V292.571v-73.143v-9.143H329.143z M274.286,338.286h-128c-5.047,0-9.143-4.096-9.143-9.143
			c0-5.047,4.096-9.143,9.143-9.143h128c5.047,0,9.143,4.096,9.143,9.143C283.429,334.19,279.333,338.286,274.286,338.286z
			 M356.571,338.286H320c-5.047,0-9.143-4.096-9.143-9.143c0-5.047,4.096-9.143,9.143-9.143h36.571c5.047,0,9.143,4.096,9.143,9.143
			C365.714,334.19,361.618,338.286,356.571,338.286z M384,265.143h-27.429c-5.047,0-9.143-4.096-9.143-9.143
			s4.096-9.143,9.143-9.143H384c5.047,0,9.143,4.096,9.143,9.143S389.047,265.143,384,265.143z"/>
	</g>
</g>
<g>
	<g>
		<path d="M329.143,137.143V192h91.429v-54.857H329.143z M384,173.714h-18.286c-5.047,0-9.143-4.096-9.143-9.143
			s4.096-9.143,9.143-9.143H384c5.047,0,9.143,4.096,9.143,9.143S389.047,173.714,384,173.714z"/>
	</g>
</g>
<g>
</g>
<g>
</g>
<g>
</g>
<g>
</g>
<g>
</g>
<g>
</g>
<g>
</g>
<g>
</g>
<g>
</g>
<g>
</g>
<g>
</g>
<g>
</g>
<g>
</g>
<g>
</g>
<g>
</g>
</svg>
